<svg width="287" height="167" viewBox="0 0 287 167" fill="none" xmlns="http://www.w3.org/2000/svg">
<path d="M286.034 83.4531C286.034 85.2992 286.032 92.6097 275.03 92.6097C275.03 92.6097 253.025 92.6097 238.367 107.268C223.709 121.926 181.545 164.091 181.545 164.091C177.89 167.746 172.387 167.746 168.695 164.091C165.04 160.436 165.04 154.934 168.695 151.242L214.516 105.422C221.863 98.0742 232.867 92.5728 243.833 92.5728H9.15479C5.49951 92.5728 0 88.9175 0 83.4161C0 77.9147 3.65341 74.2595 9.15479 74.2595H243.833C230.984 74.2595 221.826 68.7581 214.516 61.4106L168.695 15.5903C165.04 11.935 165.04 6.43367 168.695 2.74146C172.35 -0.913821 177.853 -0.913821 181.545 2.74146C181.545 2.74146 223.709 44.9064 238.367 59.5645C253.025 76.0686 275.03 74.2225 275.03 74.2225C286.032 74.2225 286.034 81.57 286.034 83.3792" fill="#84926A"/>
</svg>
