<svg width="913" height="135" viewBox="0 0 913 135" fill="none" xmlns="http://www.w3.org/2000/svg">
<path d="M97.5047 41.3505C97.5047 65.929 81.5579 83.1731 52.3874 83.1731H44.9182C26.7557 83.1731 24.7904 96.2876 24.5785 99.0942C24.6748 94.5857 26.0235 62.5572 44.9182 62.5572H52.3874C63.7679 62.5572 72.9455 53.6044 72.9455 42.256C72.9455 30.9077 65.8552 21.6273 52.4131 21.6273H24.617L24.5721 99.197C24.5528 99.4731 24.5528 99.6208 24.5528 99.6208L24.5078 132.555L0 132.536V0.992188H52.4324C78.0063 0.992188 97.5111 16.894 97.5111 41.3505H97.5047ZM24.5656 99.197C24.5656 99.197 24.5656 99.1327 24.5721 99.0942C24.5656 99.4346 24.5656 99.6208 24.5656 99.6208V99.197Z" fill="#EEEBE4"/>
<path d="M108.066 132.612V1.0625H131.47V132.612H108.066Z" fill="#EEEBE4"/>
<path d="M228.396 60.55V132.417H204.993V72.9259C204.993 84.9101 198.538 87.7103 189.63 87.7103H184.313C178.173 87.7103 168.642 89.5278 167.55 99.5789C166.664 107.761 173.414 115.16 184.313 115.16C195.211 115.16 204.986 107.761 204.986 99.4889C204.986 104.389 204.556 108.795 203.715 112.7C200.696 126.778 192.431 134.33 180.234 134.716C156.504 135.467 144.141 118.236 144.141 102.662C144.141 82.8935 160.588 70.5882 180.466 70.5882H195.083C200.979 70.5882 205.224 67.1779 204.954 62.9134C204.498 55.6433 198.493 51.8605 188.584 51.8605C182.091 51.8605 175.919 55.8231 173.838 60.6849H150.39C154.718 40.5571 172.059 33.1328 188.584 33.1328C205.108 33.1328 228.39 41.6361 228.39 60.55H228.396Z" fill="#EEEBE4"/>
<path d="M268.29 35.6487V132.614H244.887V35.6487H268.29ZM330.478 68.0111V132.614H307.075V70.0984C307.075 61.8392 299.785 53.9525 287.679 53.9525C276.491 53.9525 268.283 61.8392 268.283 70.0984C268.283 50.0156 274.918 35.5074 289.998 33.555C306.599 31.4035 330.471 43.6253 330.471 68.0111H330.478Z" fill="#EEEBE4"/>
<path d="M438.063 90.4898H366.209C368.521 106.372 379.285 113.97 390.312 114.111C397.666 114.015 404.91 110.605 409.599 103.63H435.141C428.012 123.533 410.029 134.573 390.312 134.74C364.822 134.528 342.234 116.237 342.234 83.9325C342.234 51.6279 365.342 33.125 390.312 33.125C415.283 33.125 438.39 51.7307 438.39 83.9325C438.39 86.1868 438.281 88.3768 438.063 90.4898ZM413.664 72.6933C408.867 60.2596 400.331 53.9143 390.312 53.7666C380.274 53.9207 371.72 60.2211 366.941 72.6933H413.671H413.664Z" fill="#EEEBE4"/>
<path d="M496.764 35.6085V53.8674H445.835C450.838 53.8995 480.317 54.6895 480.317 68.5425V104.591C480.317 108.612 483.708 111.99 487.529 111.99H496.764V132.612H480.76C467.722 132.612 456.913 122.035 456.913 108.772V66.892C456.913 53.8674 445.115 53.8674 445.115 53.8674H442.797V35.6085H456.92V1.0625H480.323V35.6085H496.771H496.764Z" fill="#EEEBE4"/>
<path d="M574.475 0V120.458H640.247V131.916H560.988V0H574.475Z" fill="#EEEBE4"/>
<path d="M689.027 133.581C660.39 133.581 643.023 112.15 643.023 84.0647C643.023 55.9796 660.942 34.7344 688.475 34.7344C719.7 34.7344 730.972 58.5679 731.89 83.5124C732.076 84.8033 732.076 86.4667 732.076 87.9439H655.406C656.697 109.003 669.818 122.862 688.847 122.862C702.887 122.862 714.158 116.029 718.223 103.647H731.158C725.615 122.304 710.465 133.575 689.033 133.575L689.027 133.581ZM719.142 77.5974C717.292 57.8293 707.684 45.2671 688.475 45.2671C669.265 45.2671 657.435 58.7541 655.586 77.5974H719.142Z" fill="#EEEBE4"/>
<path d="M747.406 36.3978H760.341V54.5025C765.331 43.6037 774.014 34.7344 789.903 34.7344C811.887 34.7344 824.449 47.6691 824.449 71.1301V131.912H811.515V72.0485C811.515 52.4666 802.279 45.6267 788.606 45.6267C774.194 45.6267 760.341 55.787 760.341 83.3197V131.912H747.406V36.3978Z" fill="#EEEBE4"/>
<path d="M874.876 45.6424C864.716 45.6424 854.37 50.6326 854.37 60.7928C854.37 69.8484 862.314 74.2798 871.736 76.6818C875.801 77.7929 880.419 78.8975 884.67 80.1948C898.896 83.8877 912.017 90.1688 912.017 105.505C912.017 125.274 891.876 133.404 875.807 133.404C859.739 133.404 841.075 126.012 838.301 103.476H851.235C853.265 116.224 862.134 122.692 876.18 122.692C887.817 122.692 899.089 118.26 899.089 106.064C899.089 97.0086 890.958 93.6883 881.17 91.1C876.18 89.6229 872.487 88.6981 867.869 87.587C854.382 84.074 841.448 76.502 841.448 61.3515C841.448 43.9854 859.186 34.75 875.255 34.75C893.36 34.75 908.144 44.1716 910.726 65.0508H897.791C896.5 50.639 885.595 45.6488 874.883 45.6488L874.876 45.6424Z" fill="#EEEBE4"/>
</svg>
