<svg width="1801" height="237" viewBox="0 0 1801 237" fill="none" xmlns="http://www.w3.org/2000/svg">
<g clip-path="url(#clip0_29_9004)">
<path d="M136.321 57.8076C136.321 92.1706 114.026 116.28 73.2426 116.28H62.7999C37.407 116.28 34.6594 134.615 34.3631 138.539C34.4978 132.235 36.3834 87.4566 62.7999 87.4566H73.2426C89.1536 87.4566 101.985 74.9397 101.985 59.0736C101.985 43.2075 92.0718 30.2327 73.2785 30.2327H34.4169L34.3541 138.682C34.3272 139.069 34.3272 139.275 34.3272 139.275L34.2643 185.32L0 185.293V1.38281H73.3055C109.06 1.38281 136.33 23.6151 136.33 57.8076H136.321ZM34.3451 138.682C34.3451 138.682 34.3451 138.593 34.3541 138.539C34.3451 139.015 34.3451 139.275 34.3451 139.275V138.682Z" fill="#545247"/>
<path d="M151.078 185.4V1.48047H183.798V185.4H151.078Z" fill="#545247"/>
<path d="M319.305 84.6561V185.132H286.585V101.959C286.585 118.714 277.561 122.629 265.107 122.629H257.672C249.088 122.629 235.763 125.17 234.237 139.222C232.998 150.662 242.435 161.005 257.672 161.005C272.91 161.005 286.576 150.662 286.576 139.096C286.576 145.948 285.974 152.107 284.798 157.566C280.578 177.249 269.022 187.808 251.97 188.347C218.793 189.397 201.508 165.306 201.508 143.532C201.508 115.894 224.503 98.6904 252.294 98.6904H272.73C280.973 98.6904 286.908 93.9225 286.531 87.9604C285.894 77.796 277.498 72.5073 263.643 72.5073C254.565 72.5073 245.936 78.0474 243.027 84.8446H210.244C216.296 56.7041 240.54 46.3242 263.643 46.3242C286.747 46.3242 319.296 58.2126 319.296 84.6561H319.305Z" fill="#545247"/>
<path d="M375.095 49.8377V185.404H342.375V49.8377H375.095ZM462.04 95.0744V185.395H429.32V97.9927C429.32 86.4455 419.128 75.4192 402.203 75.4192C386.561 75.4192 375.086 86.4455 375.086 97.9927C375.086 69.915 384.361 49.6312 405.444 46.9015C428.655 43.8935 462.031 60.9807 462.031 95.0744H462.04Z" fill="#545247"/>
<path d="M612.446 126.5H511.988C515.22 148.706 530.269 159.328 545.686 159.525C555.967 159.391 566.096 154.623 572.651 144.872H608.361C598.394 172.698 573.252 188.133 545.686 188.366C510.048 188.07 478.469 162.498 478.469 117.333C478.469 72.1676 510.776 46.2988 545.686 46.2988C580.597 46.2988 612.904 72.3113 612.904 117.333C612.904 120.484 612.751 123.546 612.446 126.5ZM578.334 101.619C571.627 84.2356 559.694 75.3642 545.686 75.1577C531.652 75.3732 519.692 84.1817 513.011 101.619H578.343H578.334Z" fill="#545247"/>
<path d="M694.522 49.7791V75.3067H623.317C630.312 75.3516 671.526 76.4561 671.526 95.824V146.224C671.526 151.845 676.267 156.568 681.61 156.568H694.522V185.4H672.146C653.918 185.4 638.806 170.611 638.806 152.069V93.5164C638.806 75.3067 622.312 75.3067 622.312 75.3067H619.07V49.7791H638.815V1.48047H671.535V49.7791H694.531H694.522Z" fill="#545247"/>
<path d="M784.312 0H847.337C878.854 0 902.873 16.7909 902.873 48.8194C902.873 69.229 889.7 82.9131 871.356 89.3781V89.6385C893.05 92.4759 910.622 107.722 910.622 133.546C910.622 166.356 886.082 184.431 848.63 184.431H784.312V0ZM842.695 82.4013C868.528 82.4013 883.765 70.7734 883.765 48.8194C883.765 26.8655 869.3 16.0187 843.727 16.0187H803.178V82.4013H842.695ZM850.183 168.412C875.495 168.412 891.514 154.719 891.514 133.537C891.514 111.063 875.756 98.1507 850.964 98.1507H803.178V168.412H850.192H850.183Z" fill="#545247"/>
<path d="M934.633 50.8867H952.717V134.581C952.717 161.958 965.629 171.521 984.745 171.521C1003.86 171.521 1024.26 157.316 1024.26 118.823V50.8867H1042.35V184.433H1024.26V158.6C1017.29 174.098 1004.89 186.759 982.931 186.759C951.935 186.759 934.633 168.675 934.633 135.874V50.8867Z" fill="#545247"/>
<path d="M1170.47 78.2709H1170.73V0H1188.82V184.431H1170.73V157.054H1170.47C1163.75 172.552 1148 186.757 1123.21 186.757C1084.2 186.757 1062.76 156.533 1062.76 117.528C1062.76 78.5223 1084.2 48.559 1123.21 48.559C1148.26 48.559 1164.02 63.5362 1170.47 78.262V78.2709ZM1126.04 171.259C1158.07 171.259 1171.5 144.133 1171.5 117.528C1171.5 88.3365 1156.27 63.7966 1126.04 63.7966C1095.82 63.7966 1080.84 86.7831 1080.84 117.528C1080.84 148.272 1096.34 171.259 1126.04 171.259Z" fill="#545247"/>
<path d="M1270.69 48.5645C1314.09 48.5645 1322.36 74.9092 1322.36 95.5791V157.059C1322.36 166.873 1323.39 176.948 1324.68 184.436H1305.31C1304.53 177.46 1304.53 171.776 1304.53 164.027V158.083H1304.27C1299.88 169.19 1288.26 187.013 1258.04 187.013C1226.01 187.013 1210.77 167.897 1210.77 148.008C1210.77 116.491 1247.45 110.817 1272.5 106.677C1293.69 103.319 1304.53 98.9283 1304.53 87.0489C1304.53 71.8114 1291.1 63.5416 1270.95 63.5416C1253.13 63.5416 1240.22 73.6162 1236.08 90.6675H1217.99C1221.35 71.2906 1237.88 48.5645 1270.69 48.5645ZM1260.63 172.297C1283.87 172.297 1305.05 156.026 1305.05 122.705V102.556C1301.7 111.077 1290.85 117.533 1264.24 122.184C1242.29 125.803 1228.6 133.291 1228.6 148.017C1228.6 161.971 1240.74 172.297 1260.63 172.297Z" fill="#545247"/>
<path d="M1476.81 117.533C1476.81 156.538 1455.11 186.762 1416.11 186.762C1391.57 186.762 1375.56 172.557 1369.09 157.059H1368.83V236.102H1350.75V50.89H1368.83V78.2674H1369.09C1375.29 63.5416 1391.31 48.5645 1416.11 48.5645C1455.11 48.5645 1476.81 78.5278 1476.81 117.533ZM1413.27 171.264C1442.97 171.264 1458.73 148.277 1458.73 117.533C1458.73 86.7885 1442.46 63.802 1413.27 63.802C1384.08 63.802 1367.81 88.3419 1367.81 117.533C1367.81 144.138 1381.5 171.264 1413.27 171.264Z" fill="#545247"/>
<path d="M1554.82 186.762C1514.78 186.762 1490.5 156.799 1490.5 117.533C1490.5 78.2674 1515.55 48.5645 1554.05 48.5645C1597.7 48.5645 1613.46 81.8859 1614.74 116.761C1615 118.566 1615 120.891 1615 122.956H1507.81C1509.62 152.399 1527.96 171.776 1554.57 171.776C1574.19 171.776 1589.95 162.222 1595.64 144.91H1613.72C1605.97 170.995 1584.79 186.753 1554.83 186.753L1554.82 186.762ZM1596.93 108.491C1594.34 80.8533 1580.91 63.2902 1554.05 63.2902C1527.2 63.2902 1510.66 82.1463 1508.07 108.491H1596.93Z" fill="#545247"/>
<path d="M1679.57 63.8106C1665.37 63.8106 1650.9 70.7874 1650.9 84.9923C1650.9 97.6529 1662.01 103.848 1675.18 107.207C1680.87 108.76 1687.32 110.304 1693.27 112.118C1713.16 117.281 1731.5 126.063 1731.5 147.505C1731.5 175.143 1703.34 186.51 1680.88 186.51C1658.41 186.51 1632.32 176.175 1628.44 144.668H1646.52C1649.36 162.491 1661.76 171.533 1681.4 171.533C1697.67 171.533 1713.42 165.337 1713.42 148.286C1713.42 135.626 1702.06 130.983 1688.37 127.365C1681.4 125.3 1676.23 124.007 1669.78 122.453C1650.92 117.542 1632.84 106.955 1632.84 85.7735C1632.84 61.494 1657.64 48.582 1680.1 48.582C1705.42 48.582 1726.09 61.7544 1729.69 90.9455H1711.61C1709.81 70.7964 1694.56 63.8196 1679.58 63.8196L1679.57 63.8106Z" fill="#545247"/>
<path d="M1790.65 169.702H1800.47V184.428H1789.88C1766.63 184.428 1756.82 171.767 1756.82 152.911V65.6074H1736.93V50.8816H1756.82V18.8531L1774.64 10.8438V50.8816H1800.21V65.6074H1774.64V152.66C1774.64 163.507 1780.33 169.711 1790.65 169.711V169.702Z" fill="#545247"/>
</g>
<defs>
<clipPath id="clip0_29_9004">
<rect width="1800.46" height="236.088" fill="white"/>
</clipPath>
</defs>
</svg>
