<svg width="58" height="114" viewBox="0 0 58 114" fill="none" xmlns="http://www.w3.org/2000/svg">
<mask id="path-1-inside-1_111_4476" fill="white">
<path d="M0.757822 -8.86794e-06C32.2378 -6.11587e-06 57.7578 25.5192 57.7578 56.9995C57.7578 88.4797 32.2378 114 0.757812 114"/>
</mask>
<path d="M0.757822 -8.86794e-06L0.757822 3.99999C30.0287 3.99999 53.7578 27.7284 53.7578 56.9995L57.7578 56.9995L61.7578 56.9995C61.7578 23.31 34.4469 -4.00001 0.757823 -4.00001L0.757822 -8.86794e-06ZM57.7578 56.9995L53.7578 56.9995C53.7578 86.2706 30.0286 110 0.757813 110L0.757812 114L0.757812 118C34.447 118 61.7578 90.6889 61.7578 56.9995L57.7578 56.9995Z" fill="white" mask="url(#path-1-inside-1_111_4476)"/>
</svg>
