<svg width="440" height="440" viewBox="0 0 440 440" fill="none" xmlns="http://www.w3.org/2000/svg">
<rect width="440" height="440" rx="48" fill="#f4f0ca"/>
<mask id="mask0_48_5940" style="mask-type:luminance" maskUnits="userSpaceOnUse" x="0" y="0" width="440" height="440">
<path d="M440 0H0V440H440V0Z" fill="white"/>
</mask>
<g mask="url(#mask0_48_5940)">
<path d="M227.424 160.602C231.52 160.602 234.839 163.921 234.839 168.017C234.839 172.114 231.52 175.433 227.424 175.433C223.327 175.433 220.008 172.114 220.008 168.017C220.008 163.921 223.327 160.602 227.424 160.602Z" fill="#1e1d14"/>
<path d="M212.564 145.773C216.661 145.773 219.98 149.093 219.98 153.189C219.98 157.286 216.661 160.605 212.564 160.605C208.468 160.605 205.148 157.286 205.148 153.189C205.148 149.093 208.468 145.773 212.564 145.773Z" fill="#1e1d14"/>
<path d="M242.283 175.465C246.38 175.465 249.699 178.784 249.699 182.881C249.699 186.977 246.38 190.297 242.283 190.297C238.186 190.297 234.867 186.977 234.867 182.881C234.867 178.784 238.186 175.465 242.283 175.465Z" fill="#1e1d14"/>
<path d="M257.111 190.297C261.208 190.297 264.527 193.616 264.527 197.713C264.527 201.809 261.208 205.129 257.111 205.129C253.014 205.129 249.695 201.809 249.695 197.713C249.695 193.616 253.014 190.297 257.111 190.297Z" fill="#1e1d14"/>
<path d="M271.978 205.156C276.075 205.156 279.394 208.475 279.394 212.572C279.394 216.669 276.075 219.988 271.978 219.988C267.882 219.988 264.562 216.669 264.562 212.572C264.562 208.475 267.882 205.156 271.978 205.156Z" fill="#1e1d14"/>
<path d="M286.814 219.988C290.911 219.988 294.23 223.307 294.23 227.404C294.23 231.501 290.911 234.82 286.814 234.82C282.718 234.82 279.398 231.501 279.398 227.404C279.398 223.307 282.718 219.988 286.814 219.988Z" fill="#1e1d14"/>
<path d="M378.88 175.464L377.385 173.819L346.196 142.78L345.3 141.883L340.096 147.086C335.64 151.542 329.691 153.755 323.172 153.755C322.125 153.755 320.958 153.755 319.911 153.605C318.865 153.456 317.699 153.157 316.652 153.007L314.439 152.409C313.392 152.11 312.346 151.811 311.329 151.362L309.984 150.764C305.529 148.821 301.372 146.01 297.664 142.302C297.066 141.704 296.468 141.106 296.02 140.508C295.721 140.209 295.421 139.76 295.122 139.461C290.965 134.557 288.155 128.905 286.958 122.985C286.659 121.789 286.511 120.622 286.361 119.426C285.763 111.562 288.005 104.714 292.879 99.8399L298.083 94.6368V94.4873L264.531 61.0859L61.1035 264.514H60.9531L175.422 378.982L379 175.404H378.85L378.88 175.464ZM93.7863 252.673C99.5874 246.872 152.875 193.585 198.477 148.133C206.042 140.567 213.338 133.122 220.305 126.304L264.562 82.0478L277.63 95.1153C274.819 99.4213 273.025 104.325 272.277 109.528C271.679 111.741 271.53 114.133 271.53 116.496C271.53 117.991 271.529 119.307 271.679 120.802C271.828 122.147 271.978 123.463 272.277 124.958L272.426 125.855C274.37 135.813 279.543 145.292 287.138 152.887C290.397 156.147 294.106 158.988 297.963 161.35C299.309 162.097 300.625 162.845 302.12 163.563C307.622 166.224 313.244 167.719 319.194 168.317C320.69 168.467 322.155 168.467 323.5 168.467C325.863 168.467 328.255 168.317 330.468 167.869C335.82 166.972 340.574 165.207 344.88 162.367L357.948 175.434L357.649 175.883L187.352 346.179C175.481 358.05 175.482 371.417 175.482 371.417C175.482 371.417 172.521 355.09 163.61 346.179L92.351 274.921C81.9449 264.514 67.1133 264.514 67.1133 264.514C67.1133 264.514 83.44 263.019 93.8462 252.643" fill="#1e1d14"/>
</g>
</svg>
