<svg width="62" height="60" viewBox="0 0 62 60" fill="none" xmlns="http://www.w3.org/2000/svg">
<path d="M24.5972 38.76C24.5972 37.2 25.7972 36 27.3572 36H34.0772C35.6372 36 36.8372 34.8 36.8372 33.24V26.76C36.8372 25.2 38.0372 24 39.5972 24H61.3172V36H39.5972C38.0372 36 36.8372 37.2 36.8372 38.76V60H24.5972V38.76ZM0.117188 36L0.117188 24H21.8372C23.3972 24 24.5972 22.8 24.5972 21.24V0L36.8372 0V21.24C36.8372 22.8 35.6372 24 34.0772 24L27.3572 24C25.7972 24 24.5972 25.2 24.5972 26.76L24.5972 33.24C24.5972 34.8 23.3972 36 21.8372 36H0.117188Z" fill="#C9FE6E"/>
<path d="M24.5972 38.76C24.5972 37.2 25.7972 36 27.3572 36H34.0772C35.6372 36 36.8372 34.8 36.8372 33.24V26.76C36.8372 25.2 38.0372 24 39.5972 24H61.3172V36H39.5972C38.0372 36 36.8372 37.2 36.8372 38.76V60H24.5972V38.76ZM0.117188 36L0.117188 24H21.8372C23.3972 24 24.5972 22.8 24.5972 21.24V0L36.8372 0V21.24C36.8372 22.8 35.6372 24 34.0772 24L27.3572 24C25.7972 24 24.5972 25.2 24.5972 26.76L24.5972 33.24C24.5972 34.8 23.3972 36 21.8372 36H0.117188Z" fill="#C9FE6E"/>
</svg>
